<svg width="24" height="24" viewBox="0 0 24 24" fill="none" xmlns="http://www.w3.org/2000/svg">
<rect x="0.75" y="0.75" width="22.5" height="22.5" rx="11.25" stroke="black" stroke-opacity="0.1" stroke-width="1.5"/>
<path d="M13.416 10.0748L10.6679 10.4535L10.5695 10.9549L11.1096 11.0644C11.4624 11.1568 11.532 11.2967 11.4552 11.6833L10.5695 16.2595C10.3367 17.4431 10.6955 18 11.5392 18C12.1932 18 12.9528 17.6675 13.2972 17.2109L13.4028 16.662C13.1628 16.8942 12.8124 16.9866 12.5796 16.9866C12.2496 16.9866 12.1296 16.7319 12.2148 16.2833L13.416 10.0748ZM13.5 7.31955C13.5 7.66952 13.3736 8.00515 13.1485 8.25261C12.9235 8.50008 12.6182 8.6391 12.3 8.6391C11.9817 8.6391 11.6765 8.50008 11.4514 8.25261C11.2264 8.00515 11.1 7.66952 11.1 7.31955C11.1 6.96958 11.2264 6.63395 11.4514 6.38649C11.6765 6.13902 11.9817 6 12.3 6C12.6182 6 12.9235 6.13902 13.1485 6.38649C13.3736 6.63395 13.5 6.96958 13.5 7.31955Z" fill="black" fill-opacity="0.5"/>
</svg>
