<svg width="21" height="21" viewBox="0 0 21 21" fill="none" xmlns="http://www.w3.org/2000/svg">
<path d="M5.39521 10.2857L7.22896 12.1202M7.83968 7.84039L9.67423 9.67414M10.2857 5.39512L12.1203 7.22887M4.29352 11.3866L11.3858 4.29423C12.0713 3.60959 12.4144 3.26727 12.8082 3.1387C13.1561 3.0262 13.5298 3.0262 13.8769 3.1387C14.2715 3.26727 14.6138 3.60959 15.2976 4.29343L16.278 5.27298C16.9626 5.95762 17.3049 6.30155 17.4335 6.6953C17.546 7.04325 17.546 7.41611 17.4335 7.76405C17.3049 8.1578 16.9626 8.50093 16.278 9.18637L9.18566 16.2787C8.50021 16.9633 8.15709 17.3057 7.76334 17.4342C7.41539 17.5467 7.04253 17.5467 6.69459 17.4342C6.30084 17.3057 5.95691 16.9633 5.27227 16.2779L4.29191 15.2991C3.60887 14.6145 3.26655 14.273 3.13798 13.8776C3.02513 13.5303 3.02513 13.1562 3.13798 12.8089C3.26655 12.4151 3.60887 12.072 4.29352 11.3866Z" stroke="black" stroke-width="1.28571" stroke-linecap="round" stroke-linejoin="round"/>
</svg>
