<svg width="16" height="16" viewBox="0 0 16 16" fill="none" xmlns="http://www.w3.org/2000/svg">
<path fill-rule="evenodd" clip-rule="evenodd" d="M5.49987 4.01022V3.33356C5.49987 2.67052 5.76326 2.03463 6.2321 1.56579C6.70094 1.09695 7.33683 0.833557 7.99987 0.833557C8.66291 0.833557 9.2988 1.09695 9.76764 1.56579C10.2365 2.03463 10.4999 2.67052 10.4999 3.33356V4.01022C11.3579 4.03622 11.8832 4.12822 12.2839 4.46089C12.8392 4.92222 12.9859 5.70222 13.2785 7.26289L13.7785 9.92956C14.1899 12.1242 14.3952 13.2216 13.7959 13.9442C13.1959 14.6669 12.0792 14.6669 9.84654 14.6669H6.1532C3.91987 14.6669 2.80387 14.6669 2.20387 13.9442C1.60387 13.2216 1.81054 12.1242 2.2212 9.92956L2.7212 7.26289C3.01454 5.70289 3.16054 4.92222 3.71587 4.46089C4.11654 4.12822 4.64187 4.03622 5.49987 4.01022ZM6.49987 3.33356C6.49987 2.93573 6.6579 2.5542 6.93921 2.2729C7.22051 1.99159 7.60204 1.83356 7.99987 1.83356C8.39769 1.83356 8.77922 1.99159 9.06053 2.2729C9.34183 2.5542 9.49987 2.93573 9.49987 3.33356V4.00022H6.49987V3.33356Z" fill="white"/>
</svg>
